{"title":"Songs of praise 5","uid":7256062,"size":3684905155,"categoryP":"video","categoryS":"tv_shows","magnet":"?xt=urn:btih:b231a27fa47d0a0e2f278d49920186512bcd16a7&amp;dn=Songs+of+praise+5&amp;tr=udp%3A%2F%2Ftracker.openbittorrent.com%3A80&amp;tr=udp%3A%2F%2Fopen.demonii.com%3A1337&amp;tr=udp%3A%2F%2Ftracker.coppersurfer.tk%3A6969&amp;tr=udp%3A%2F%2Fexodus.desync.com%3A6969","seeders":0,"leechers":1,"uploader":"kokyzake","files":5,"time":1336589470,"description":"Pack 5:\n\n2011-07-03 History Makers.avi\n2011-07-10 Pershore.avi\n2011-07-17 London by Boat.avi\n2011-07-24 Dana.avi\n\n\nVideo\nID                                       : 0\nFormat                                   : MPEG-4 Visual\nFormat profile                           : Simple@L3\nFormat settings, BVOP                    : No\nFormat settings, QPel                    : No\nFormat settings, GMC                     : No warppoints\nFormat settings, Matrix                  : Default (H.263)\nCodec ID                                 : XVID\nCodec ID/Hint                            : XviD\nDuration                                 : 34mn 6s\nBit rate                                 : 3 462 Kbps\nWidth                                    : 720 pixels\nHeight                                   : 404 pixels\nDisplay aspect ratio                     : 16:9\nFrame rate                               : 29.970 fps\nOriginal frame rate                      : 29.000 fps\nColor space                              : YUV\nChroma subsampling                       : 4:2:0\nBit depth                                : 8 bits\nScan type                                : Progressive\nCompression mode                         : Lossy\nBits/(Pixel*Frame)                       : 0.397\nStream size                              : 844 MiB (96%)\nWriting library                          : XviD 1.2.1 (UTC 2008-12-04)\n\nAudio\nID                                       : 1\nFormat                                   : MPEG Audio\nFormat version                           : Version 1\nFormat profile                           : Layer 3\nMode                                     : Joint stereo\nMode extension                           : MS Stereo\nCodec ID                                 : 55\nCodec ID/Hint                            : MP3\nDuration                                 : 34mn 6s\nBit rate mode                            : Constant\nBit rate                                 : 128 Kbps\nChannel(s)                               : 2 channels\nSampling rate                            : 44.1 KHz\nCompression mode                         : Lossy\nStream size                              : 31.2 MiB (4%)\nAlignment                                : Aligned on interleaves\nInterleave, duration                     : 26 ms (0.78 video frame)\nInterleave, preload duration             : 130 ms\nWriting library                          : LAME3.98","torrent":{"xt":"urn:btih:b231a27fa47d0a0e2f278d49920186512bcd16a7","amp;dn":"Songs+of+praise+5","amp;tr":["udp%3A%2F%2Ftracker.openbittorrent.com%3A80","udp%3A%2F%2Fopen.demonii.com%3A1337","udp%3A%2F%2Ftracker.coppersurfer.tk%3A6969","udp%3A%2F%2Fexodus.desync.com%3A6969"],"infoHash":"b231a27fa47d0a0e2f278d49920186512bcd16a7","infoHashBuffer":{"type":"Buffer","data":[178,49,162,127,164,125,10,14,47,39,141,73,146,1,134,81,43,205,22,167]},"announce":[],"urlList":[]}}